<?xml version="1.0" encoding="UTF-8"?>
<svg width="640" height="160" version="1.1" viewBox="0 0 169.33 42.333" xmlns="http://www.w3.org/2000/svg">
 <g class="UnoptimicedTransforms" fill="#fff" stroke-width=".26458" aria-label="IMPASTAMI">
  <path d="m0.83574 15.989c0-0.41424 0.041017-0.82847 0.12305-1.2427 0.20509 0.65094 0.16407 0.82847-0.20509 1.2427 0 1.0652 0.12305 2.1895 0.36916 3.2547 0.041017-0.41424 0.041017-0.7693 0.12305-1.1835 0.041017 0.11835 0.082035 0.17753 0.041017 0.17753-0.041017 0.7693 0.12305 1.5978-0.12305 2.3079 0 0.17753 0 0.35506 0.082035 0.59177 0 0.20712 0.082035 0.44382 0.082035 0.65094 0 0.59176-0.041017 1.2427-0.082035 1.8345-0.12305 0.82847-0.082035 1.5978 0.20509 2.2487-0.041018-0.65094-0.041018-1.4202-0.12305-2.1895h0.20509c-0.082035 0.7693 0.16407 1.4202-0.082035 2.1895 0.082035 0.65094-0.041018 1.2427-0.16407 1.8345-0.041017 0.41424-0.12305 0.88765 0 1.3611 0.12305-0.11836 0.16407-0.23671 0.32814-0.41424-0.041018 1.006-0.082035 1.9528-0.082035 2.7813 0 0.47341-0.12305 0.94682-0.20509 1.4794-0.041017 0.47341-0.20509 1.006-0.041017 1.5386 0-0.02959-0.041017 0.56218-0.041017 0.59177-0.082035 1.1835-0.36916 2.2487 0 3.4914 0.082035 0.35506 0.041017 0.82847 0.041017 1.3019 0 0.35506 0.12305 0.53259 0.28712 0.53259h0.86137c0.14356 0.20712 0.26661 0.44382 0.41017 0.65094 0.041018 0 0.20509 0 0.20509-0.05918 0.36916-0.41424 0.6973-0.82847 1.1075-1.1244 0.041018 0.11836 0.12305 0.35506 0.2461 0.53259 0.20509-0.17753 0.45119-0.35506 0.65628-0.53259-0.16407-0.71012-0.082035-0.88765 0.12305-1.3019 0.28712 0.41424 0.53323 0.82847 0.73831 1.2427 0.28712-0.59176 0.082035-1.0652-0.041017-1.5978 0.16401-0.05916 0.24617-0.05919 0.41017-0.11834 0 0.23671-0.16407 0.47341 0.041017 0.53259 0.2461 0.11835 0.36916-0.05918 0.36916-0.29588v-0.17753c0.041017-0.41424 0.20509-0.41424 0.36916-0.23671 0.082035-0.35506 0.20509-0.65094 0.2461-1.006 0.28712 0.17753 0.53323 0.35506 0.82035 0.59176 0.04102-1.1835 0.08204-2.2487-0.08203-3.3139-0.04102 0-0.12305 0-0.12305-0.11835-0.04102 0.17753-0.08203 0.35506-0.16407 0.59176-0.16407-0.65094-0.16407-0.65094 0.36916-1.0652 0-1.006-0.08203-2.0712-0.08203-3.0772-0.12305 0.35506-0.12305 0.65094-0.12305 1.006-0.04102 0.41424-0.08203 0.82847-0.08203 1.1835 0 0.29588 0.16407 0.65094-0.12305 0.82847-0.08204-0.59176-0.12305-1.1835-0.12305-1.8345v-1.2427c0.12305-1.0652 0.16407-2.0712-0.16407-3.0772 0-0.02959-0.082035-0.38465-0.082035-0.35506 0.082035-0.71012 0.12305-1.5386 0.12305-2.3079 0-0.59176 0.12305-1.3019-0.041017-1.8345-0.12305-0.53259-0.16407-1.0652-0.16407-1.5386 0-0.59176 0.041017-1.0652 0-1.5978-0.12305-1.0652-0.2461-2.1304-0.41017-3.1364-0.2461-1.8936-0.36916-3.9057-0.41017-5.7993 0-1.1835-0.45119-2.3079-0.12305-3.5506 0-0.11835-0.041017-0.23671-0.041017-0.35506-0.082035-0.05918-0.082035-0.23671-0.082035-0.41424h0.12305c0.082035 0.35506 0.12305 0.59177 0.16407 0.94682h0.082035c0-0.82847-0.082035-1.5978-0.12305-2.4854-0.2461 0.11835-0.41017 0.23671-0.53323 0.41424-0.082035-0.76929 0.12305-1.5978-0.20509-2.2487-0.12305 0.17753-0.16407 0.23671-0.28712 0.29588-0.2461-0.47341-0.12305-1.1244-0.57424-1.4794-0.075509 0.072626-0.29365 0.28243-0.36916 0.35506-0.041017-0.7693-0.041017-0.7693-0.32814-0.94682 0.041018 0.29588 0.041018 0.59177 0.12305 0.82847h-0.12305c-0.12307-0.29589-0.28714-0.65095-0.41019-1.0652-0.10254 0.14794-0.18458 0.20712-0.28712 0.35506-0.16407-0.23671-0.28712-0.53259-0.45119-0.59177-0.41017-0.17753-0.86137-0.17753-1.2715-0.23671-0.16407 0.59177-0.45119 0.88765-0.86137 0.88765-0.32814 0-0.49221 0.35506-0.61526 0.7693-0.12305 0.65094-0.36916 1.2427-0.16407 1.9528 0.041017 0.29588-0.082035 0.71012-0.082035 1.006 0 0.41424-0.041017 0.94682 0 1.4202 0.12305 1.8345 0.28712 3.7281 0.45119 5.6218 0.082035 1.1835 0.20509 2.4262 0.2461 3.6689 0 0.05918 0.041017 0.05918 0.12305 0.05918v-5e-6zm4.4299 6.2135v-0.82847h0.082035v0.82847h-0.082035zm1.8868 8.1072v-0.53259c0.20509 0.29588 0.20509 0.29588 0 0.53259zm0.12305-1.8936-0.082035-0.82847h0.12305c0 0.23671 0.041017 0.53259 0.041017 0.7693-0.041017 0-0.082035 0.05918-0.082035 0.05918l6e-7 -5e-6zm-1.6407-7.9297v-0.65094c0.28712 0.11834 0.12305 0.29588 0 0.65094z"/>
  <path d="m25.036 5.0417c0.20509 0.76929-0.57424 1.1244-0.28712 1.8345-0.41017 0.11836-0.57424 0.41424-0.53323 1.0652 0.04102 0.17753-0.12305 0.41424-0.16407 0.7693-0.08203-0.41424-0.12305-0.65094-0.16407-1.006-0.2461 0.41424-0.28712 0.65094-0.2461 1.006 0.12305 0.47341 0.04102 1.006-0.16407 1.3019-0.36916 0.76929-0.73831 1.5386-1.1075 2.1895-0.14356 0-0.34865-0.11834-0.49221-0.11834-0.41017 0.7693-0.53323 1.6569-1.0665 2.2487 0.20509-0.65094 0.12305-1.006-0.16407-1.3019-0.12305 0.29588-0.20509 0.71012-0.32814 1.0652h-0.12305c0.04102-0.59176-0.12305-1.0652-0.16407-1.6569-0.12305-1.0652-0.28712-2.1304-0.65628-3.1364-0.20509-0.65094-0.28712-1.4202-0.49221-2.012-0.41017-0.88765-0.73831-1.8345-1.1485-2.6629-0.36916-0.65094-0.73831-1.2427-1.1485-1.7753-0.16407-0.17753-0.41017-0.35506-0.53322-0.35506-0.20509 0.17753-0.28712 0-0.41017-0.059176-0.16407-0.17753-0.28712-0.29588-0.45119-0.35506-0.49221-0.35506-1.0254-0.59177-1.4356-1.006-0.45119-0.41424-0.86137-0.59177-1.3126-0.59177-0.16407 0-0.32814-0.41424-0.57424-0.059177-0.12305 0.23671-0.2461 0.59177-0.32814 0.82847-0.08204 0.059177-0.08204 0.17753-0.12305 0.17753l-0.57424-0.11835c-0.08203 0.17753-0.16407 0.35506-0.16407 0.53259-0.12305 0.41424-0.20509 0.82847-0.2461 1.2427-0.04102 0.41424-0.16407 0.88765-0.16407 1.4202 0 1.7753 0.04102 3.5506 0.12305 5.2667 0 0.53259-0.08204 1.0652 0 1.4794 0.08203 1.1835 0.08203 2.4262 0.08203 3.6098 0 0.29588 0 0.65094 0.20509 0.94682 0.08204 0.29588 0.28712 0.71012 0.04102 1.006-0.04102 0 0.04102 0.17753 0.16407 0.35506 0.06152-0.17751 0.06153-0.47343 0.12305-0.65094 0.16407-0.7693 0.41017-1.4202 0.41017-2.0712 0.04102-0.71012 0.20509-1.006 0.49221-1.5978 0.08203 1.3019 0.20509 2.4854 0.2461 3.6689 0.04102 0 0.16407 0 0.16407 0.05918 0.08204 0.23671 0.12305 0.41424 0.12305 0.65094 0 1.7753-0.04102 3.4914-0.41017 5.2075 0.12305 0.11834 0.28712 0.17753 0.53323 0.35506 0 0.23671-0.08204 0.59176-0.12305 0.88765-0.16407 0.71012-0.32814 1.4202-0.2461 2.1895 0.08203 1.006-0.04102 1.9528-0.16407 2.9588 0 0.35506-0.12305 0.76929 0 1.0652 0.12305 0.35506 0.12305 0.59176 0.08204 0.94682-0.08204 0.29588-0.08204 0.59177-0.08204 1.006-0.45119-0.35506-0.20509-0.82847-0.20509-1.1835-0.08203-0.41424-0.08203-0.88765-0.08203-1.4794-0.20509 0.29588-0.41017 0.41424-0.20509 0.82847 0.08203 0.23671 0.04102 0.59176 0.04102 0.88765 0 0.23671-0.12305 0.35506-0.2461 0.23671-0.04102-0.23671-0.08203-0.47341-0.16407-0.71012 0-0.65094 0.12305-1.4202-0.20509-2.0712-0.08204-0.11836 0-0.35506 0-0.53259 0-0.41424-0.08204-0.88765 0-1.3611 0.04102-0.7693 0.04102-1.5386 0.20509-2.2487 0.08204-0.41424 0.12305-0.82847 0.12305-1.2427 0-0.11836-0.04102-0.11836-0.12305-0.17753 0 0.17753-0.04102 0.35506-0.12305 0.47341-0.04102 0-0.08204-0.05918-0.08204-0.05918 0-0.88765-0.12305-1.7161 0.04102-2.6629 0.04102-0.05918 0.04102-0.17753 0-0.23671-0.04102-0.41424-0.16407-0.7693-0.28712-1.1835l-0.04102 0.11835c-0.08203 0.65094-0.20509 1.3019 0.04102 1.9528 0.04102 0.17753 0 0.29588 0 0.41424-0.04102 0.7693 0 1.5386-0.16407 2.2487v0.17753c0.16407 0.82847 0.20509 1.6569-0.08204 2.4854v0.35506 5.2075c0 0.44382 0.08204 0.85806 0.08204 1.3019 0 1.006-0.08204 2.0712-0.08204 3.0772 0 0.41424 0.12305 0.88765 0.08204 1.3019-0.08204 0.7693 0.20509 1.4202 0.32814 2.2487 0.28712-0.23671 0.45119-0.47341 0.6973-0.71012 0.12305 0.23671 0.2461 0.47341 0.32814 0.82847 0.20509 0.47341 0.41017 0.53259 0.6973 0.11835 0.12305-0.05918 0.16407-0.23671 0.2461-0.29588 0.90238 0.29588 0.90238 0.29588 1.2715 0.05918 0-0.17753 0-0.23671-0.08204-0.47341 0.36916 0.17753 0.57424 0.23671 0.82035 0.29588 0.28712-0.29588 0.04102-0.53259-0.08203-0.82847 0.12305-0.11835 0.2461-0.23671 0.36916-0.41424 0.04102 0.17754 0.12305 0.35505 0.16407 0.53259 0.04102 0.41424 0.2461 0.41424 0.53322 0.41424 0.08204-0.41424 0.16407-0.7693 0.20509-1.2427 0.16407-0.11835 0.41017-0.17753 0.57424-0.23671 0.08203 0 0.2461-0.11835 0.2461-0.11835-0.08204-0.65094 0.41017-0.47341 0.57424-0.71012 0-0.7693-0.08203-1.9528-0.16407-2.0712 0-4e-6 -0.08203 0.53259-0.08203 0.53259-0.32814-1.0652-0.20509-2.1895-0.28712-3.3731-0.04102-1.1836-0.12305-2.3078-0.16407-3.4914-0.28712 0.41424-0.16407 1.0652-0.45119 1.4794 0.20509-3.7281 0.57424-7.3379 0.41017-11.066 0.08203 0.17753 0.16407 0.41424 0.16407 0.59177 0 0.71012 0 1.3611 0.32814 1.9528 0.12305 0.23671 0.16407 0.59176-0.04102 0.82847l0.04102 0.11834c0.08203 0.05918 0.16407 0.05918 0.2461 0.05918 0 0.35506-0.08203 0.59177 0 0.82847 0.04102 0.59177 0.16407 1.2427 0.28712 1.8936 0.12305 0.65094 0.45119 1.006 0.90238 0.94682 0.45119 0 0.9434 0.29588 1.3946 0.05918h0.04102c0.28712 0.35506 0.65628 0.05918 0.9434 0.23671 0.20509 0.11835 0.36916 0 0.57424-0.29588 0.08203-0.11836 0.32814-0.35506 0.36916-0.29588 0.41017 0.35506 0.77933 0 1.1075-0.23671 0.12305-0.29588 0.16407-0.71012 0.2461-1.0652 0.20509 0.05918 0.36916 0.05918 0.49221 0.17753 0.12305-0.23671 0.16407-0.53259 0.28712-0.65094 0.12305 0.05918 0.16407 0.05918 0.28712 0.23671 0.16407-0.59176 0.45119-1.1835 0.53323-1.7753 0.04102-0.53259 0.20509-1.0652 0.32814-1.5386 0.12305-0.76929 0.45119-1.4202 0.28712-2.2487-0.04102-0.17753 0-0.41424 0.08203-0.41424 0.36916-0.41424 0.49221-1.006 0.73831-1.4794 0.20509-0.65094 0.28712-1.4202 0.73831-1.7753 0.04102 0.94682 0.04102 1.8345 0.16407 2.6629 0.12305 0.94682 0.2461 1.7753 0.2461 2.6629-0.08204 1.2427 0 2.5446-0.08204 3.7873 0 1.0948-0.04102 2.1599-0.04102 3.2547 0 1.2427-0.04102 2.5446-0.04102 3.7873 0 0.94682-0.08203 1.8345 0.04102 2.7813 0.12305 0.94682 0.04102 1.8936 0.04102 2.7813 0 0 0.08204 0 0.12305 0.11836 0-0.29588 0.08204-0.41424 0.12305-0.59176 0.04102 0.23671 0.04102 0.47341 0.12305 0.65094 0.04102 0.41424-0.28712 0.35506-0.28712 0.65094 0.04102 0.11834 0.16407 0.11834 0.16407 0.17753 0.04102 0.41424 0.32814 0.47341 0.45119 0.82847 0.12305 0.23671 0.73831 0.47341 0.86136 0.35506 0.16407-0.29588 0.41017-0.17753 0.57424-0.17753 0.41017-0.11835 0.73831 0.23671 1.1485 0.23671 0.08203-0.41424 0.12305-0.82847 0.2461-1.1835 0.04102-0.23671 0.20509-0.47341 0.45119-0.65094 0.04102 0 0.28712 0.23671 0.41017 0.41424 0.16407 0.17753 0.28712 0.41424 0.49221 0.65094 0-0.65094 0.08203-1.2427 0.08203-1.8936 0.16407 0.17753 0.20509 0.35506 0.41017 0.53259 0.49221-0.71012 0.77933-1.4202 0.86136-2.4262 0-0.59177 0-1.0652 0.04102-1.6569 0-0.35506 0.12305-0.82847-0.16407-1.1835-0.08203 0.29588-0.12305 0.35506-0.12305 0.41424-0.04102-0.53259-0.04102-1.1244-0.12305-1.7161 0-0.41424 0-0.88765 0.16407-1.2427 0.12305-0.17753 0.2461-0.41424 0.20509-0.59177 0-0.23671-0.20509-0.41424-0.2461-0.65094 0.12305-0.23671 0.28712-0.59176 0.41017-1.006-0.16407 0.11836-0.28712 0.11836-0.41017 0.17753-0.12305-0.82847-0.28712-1.6569 0.45119-2.0712v-1.006c-0.20509 0.53259-0.32814 0.7693-0.45119 1.006h-0.12305v-2.2487s0.08203-0.05918 0.12305-0.17753c0.28712-0.23671 0.32814-0.71012 0.41017-1.1244 0-0.08877-0.08203-0.14794-0.08203-0.23671-0.08204 0.11836-0.12305 0.11835-0.20509 0.23671 0-0.23671-0.12305-0.41424-0.08203-0.59177 0.08203-0.82847 0-1.7161 0.28712-2.4854 0.12305-0.23671 0.20509-0.59176 0.12305-0.88765 0-0.94682-0.04102-1.7753-0.12305-2.6629-0.04102-0.65094 0-1.4202-0.36916-2.012 0-0.05918-0.08203-0.23671 0-0.29588 0.20509-0.71012 0.08203-1.4202 0.08203-2.0712 0-0.35506 0.08203-0.59177-0.16407-0.82847-0.04102-0.11836-0.12305-0.35506-0.04102-0.53259 0.16407-0.29588 0.12305-0.65094 0.04102-0.88765-0.12305-0.82847-0.20509-1.7753-0.41018-2.4854-0.082029-0.65094-0.28712-1.4202-0.65628-1.5978-0.20509-0.65094-0.28712-1.1244-0.49221-1.6569-0.08203 0.11835-0.20509 0.17753-0.32814 0.23671-0.04102-0.11835-0.16407-0.29588-0.28712-0.47341-0.12305 0.23671-0.28712 0.41424-0.53322 0.7693v-0.7693c-0.36916-0.059176-0.77933-0.059176-1.1485-0.47341-0.04102-0.11835-0.16407 0-0.20509-0.11835-0.2461-0.059177-0.53323-0.17753-0.73831-0.23671-0.49221-0.35506-0.6973-0.23671-1.0665 0.35506-0.08203 0.11835-0.28712 0.29588-0.36916 0.29588-0.28712-0.059176-0.36916 0.17753-0.53323 0.41424-0.2461 0.65094-0.32814 1.4202-0.82035 1.8936l-0.04102 0.11836c0.12305 0.59177-0.2461 0.59177-0.41017 0.82847-0.12305-0.17753-0.16407-0.35506-0.20509-0.53259 0-7e-6 1e-6 -1.39e-5 1e-6 -2.09e-5zm-6.6038 18.167c0-0.17753 0-0.23671 0.04102-0.35506 0.16407 0.17753 0.28712 0.35506 0.45119 0.59176-0.04102 0.11835-0.12305 0.17753-0.16407 0.23671-0.12305-0.23671-0.2461-0.41424-0.32814-0.53259v0.65094c-0.08204 0-0.12305 0.05918-0.12305 0.05918-0.12305-0.17753-0.2461-0.29588-0.2461-0.47341-0.20509-1.3611-0.90238-2.6038-0.45119-4.3199 0.04102 0.41424 0.12305 0.65094 0.16407 0.88765 0.16407 0.41424 0.08203 1.006 0.36916 1.3611 0.08204 0.05918-0.08203 0.47341-0.12305 0.82847 0.12305 0.29588 0.20509 0.65094 0.41017 1.0652l-3e-6 -3e-6zm-5.0041-8.1072c0 0.88765 0.32814 1.8345-0.2461 2.6629 0-0.14795 0.08204-0.20711 0.08204-0.35506 0.04102-0.05918 0.08204-0.35506 0.04102-0.35506-0.32814-0.47341-0.04102-1.1244-0.16407-1.7161 0-0.05918 0.04102-0.17753 0.12305-0.23671h0.16407-8e-6zm17.514 20.534c0.45119 0.35506 0.04102 1.006 0.32814 1.4794-0.20509-0.17753-0.28712-0.23671-0.41017-0.29588 0-0.35506 0-0.71012 0.08203-1.1835h5e-6zm-18.212-21.304c-0.28712-0.47341 0-0.82847 0.04102-1.3019 0.57424 0.59176-0.32814 0.82847-0.04102 1.3019zm2.8302 10.119c0.08204-0.17753 0.16407-0.23671 0.32814-0.41424v1.006c-0.16407-0.23671-0.2461-0.41424-0.32814-0.59177zm2.9122 1.4794c0.28712-0.05918 0.45119-0.17753 0.6973-0.23671-0.16407 0.47341-0.16407 0.47341-0.6973 0.23671zm-2.8302-5.9768c0.2461 0.41424 0.12305 0.71012-0.04102 1.1244-0.12305-0.41424-0.12305-0.76929 0.04102-1.1244zm0.53322-1.0652v1.006c-0.16407-0.47341-0.16407-0.47341 0-1.006zm0.86137-1.0652c-0.04102-0.17753-0.12305-0.35506-0.16407-0.47341h0.12305c0.04102 0.11834 0.08203 0.29588 0.16407 0.47341h-0.12305zm16.94 1.7161h-0.12305c-0.04102 0.53259-0.12305 1.006-0.12305 1.6569 0.36916-0.53259 0.28712-1.1244 0.2461-1.6569zm-11.157-9.6458c0.41017-0.29588 0.49221-0.41424 0.20509-0.82847-0.08204 0.23671-0.12305 0.47341-0.20509 0.82847zm-11.075 12.9h-0.16407c0 0.26629-0.04102 0.503-0.04102 0.76929h0.08203c0.08204-0.29588 0.08204-0.53259 0.12305-0.76929h8e-6zm-0.16407 5.1484c0.04102-0.11835 0.12305-0.11835 0.16407-0.11835-0.04102-0.29588-0.12305-0.53259-0.16407-0.88765 0 0-0.04102 0-0.12305 0.05918 0.08204 0.29588 0.12305 0.59177 0.12305 0.94682v-1.2e-5zm22.272-2.0712h-0.12305v0.88765h0.12305v-0.88765zm-11.239-15.149c-0.28712 0.05918-0.41017 0.11836-0.36916 0.41424 0 0.05918 0.08204 0.05918 0.12305 0.11835 0.08203-0.11835 0.12305-0.23671 0.2461-0.53259v7e-6zm-11.649 6.9237h-0.12305v0.82847h0.04102c0.08204-0.23671 0.08204-0.47341 0.08204-0.82847h-7e-6zm18.171-16.155c0 0.11835 0 0.11835 0.08203 0.17753 0.04102-0.059182 0.16406-0.17752 0.20509-0.23671 0-0.088765-0.04102-0.088765-0.04102-0.17753-0.12305 0.059177-0.16407 0.17753-0.2461 0.23671h7e-6zm-11.69 32.488c-0.08203-0.05918-0.08203-0.05918-0.12305-0.05918 0 0.11835 0 0.29588-0.04102 0.47341h0.04102c0.04102-0.17753 0.12305-0.35506 0.12305-0.41424v5e-6z"/>
  <path d="m38.941 35.577c-0.32814 0.65094-0.16407 1.3611-0.08203 2.1895-0.2461-0.11835-0.41017-0.29588-0.49221-0.47341-0.04102-0.23671-0.04102-0.59176 0-0.82847 0.20509-0.47341 0.12305-0.88765-0.04102-1.3019-0.12305 0-0.16407 0.05918-0.28712 0.11834 0-0.41424 0.12305-0.71012 0.04102-0.94682-0.04102-1.006 0-2.012 0.12305-3.018 0.08204-0.41424 0.08204-0.88765 0-1.2427-0.12305-0.59176-0.16407-0.88765-0.04102-1.4202 0.04102-0.05918 0.12305-0.23671 0.12305-0.41424v-2.6038c0-0.11835-0.08204-0.17753-0.12305-0.41424-0.08204 0.11835-0.12305 0.23671-0.12305 0.23671l-0.12305 0.17753c0.16407-1.5386 0.12305-2.8997 0-4.4382-0.12305 0.17753-0.16407 0.29588-0.20509 0.41424-0.20509 1.006-0.2461 2.012 0.04102 3.018v0.29588c-0.04102 1.1835-0.2461 2.2487-0.28712 3.4322-0.04102 0.71012 0.12305 1.4794-0.16407 2.2487v0.11834c0 0.7693 0.04102 1.5978 0.04102 2.3671 0 0.44382-0.04102 0.85806-0.04102 1.3019-0.08203 0.7693-0.12305 1.5978-0.16407 2.3079 0 0.11835 0 0.23671 0.04102 0.35506 0.28712 0.29588 0.16407 0.82847 0.16407 1.2427 0 0-0.04102 0.05918-0.04102 0.05918-0.08203-0.05918-0.12305-0.17753-0.2461-0.23671 0-0.02959-0.04102 0.32547-0.04102 0.35506 0 1e-6 0.04102 1.3019 0.04102 1.3019 0 0.05918 0.08203 0.17753 0.08203 0.17753 0 0.05918 0.04102 0.05918 0.04102 0.05918 0.2461-0.05918 0.2461 0.23671 0.2461 0.35506 0 0.41424 0 0.65094 0.28712 0.82847 0.20509 0.05918 0.45119 0.47341 0.65628 0.59176 0.77933 0.23671 0.77933 0.11835 1.5176-0.41424 0.04102-0.11835 0.12305-0.11835 0.28712-0.11835-0.12305-0.41424-0.2461-0.71012-0.36916-1.2427 0.2461 0.11836 0.36916 0.17753 0.41017 0.23671 0.57424 0.53259 0.6973 0.59177 1.2305 0.11835 0.06154 0.08878 0.10253 0.2071 0.16407 0.29588 0.20509-0.23671 0.41017-0.47341 0.49221-0.71012 0.08203-0.17753 0.08203-0.53259 0.36916-0.41424 0-0.23671 0.41017-0.35506 0.12305-0.76929-0.12305-0.17753 0-0.29588 0.20509-0.47341 0.08204 0.29588 0.12305 0.65094 0.16407 1.006 0.08203-0.53259 0.12305-0.94682 0.49221-1.1835 0.08203-0.05918 0.08203-0.35506 0.08203-0.47341v-1.9528c0-0.29588 0.08203-0.65094 0.12305-0.88765 0.16407-0.65094 0.16407-1.3019 0-2.012-0.16407-0.71012-0.28712-1.5386-0.12305-2.3079 0.20509-0.71012 0.41017-1.4202 0.57424-2.0712 0.12305 0.17753 0.2461 0.23671 0.36916 0.35506 0.12305-0.53259 0.16407-0.17753 0.32814 0 0.12305 0.05918 0.36916 0 0.53323-0.11835 0.12305 0 0.20509-0.23671 0.32814-0.29588 0.16407 0 0.28712 0.29588 0.53323 0.17753 0.16407-0.11836 0.32814 0 0.28712-0.53259 0.20509 0.11834 0.49221 0.11834 0.73831 0.17753 0.41017 0.05918 0.82035 0.05918 1.1895-0.35506 0.08201-0.05917 0.20511-0.05918 0.28712-0.11834 0.6973-0.59177 1.6407-0.71012 2.2149-1.5386 0.04102-0.05918 0.08203-0.05918 0.16407-0.05918 0.28712 0 0.41017-0.35506 0.57424-0.59176 0.16407-0.29588 0.32814-0.59177 0.45119-0.88765 0.12305-0.17753 0.2461-0.23671 0.28712-0.41424 0.2461-0.7693 0.45119-1.4202 0.6973-2.1895 0.16407-0.41424 0.16407-1.0652 0.49221-1.3611 0.08203 0 0.12305-0.29588 0.12305-0.35506 0.16407-1.006 0.65628-1.8936 0.57424-2.8997v-0.17753c0.36916-0.71012-0.04102-1.5386 0.2461-2.3079-0.2461-0.76929 0.16407-1.4794-0.08203-2.2487-0.20509-0.88765-0.32814-1.8345-0.61526-2.6629-0.28712-0.88765-0.57424-1.7161-0.90238-2.5446-0.28712-0.65094-0.53323-1.3019-0.9434-1.8345-0.28712-0.29588-0.49221-0.71012-0.77933-1.1244-0.12305-0.17753-0.28712-0.41424-0.49221-0.11835-0.04102 0.11835-0.20509 0-0.28712-0.059176-0.36916-0.35506-0.73831-0.65094-0.90238-1.4202-0.04102-0.35506-0.61526-0.82847-1.0254-0.82847 0.28712 0.35506 0.49221 0.65094 0.41017 1.2427-0.20509-0.059176-0.41017-0.17753-0.49221-0.35506-0.04102-0.23671-0.04102-0.29588-0.28712-0.23671-0.20509 0.11835-1.0665-0.82847-1.2305-1.1244-0.082029-0.11835-0.28712-0.11835-0.41017-0.17753 0.04102 0.29588-0.08204 0.23671-0.12305 0.17753-0.28712-0.17753-1.1485-0.41424-1.3946-0.41424-0.77933 0.059176-1.5997 0.11835-2.379 0.29588-0.57424 0.11835-1.1075 0.17753-1.6407 0.17753-0.16407-0.7693-0.49221-1.006-0.86137-1.1835-0.49221-0.11835-1.0254-0.23671-1.5176-0.29588-0.08203 0-0.28712 0.17753-0.28712 0.23671-0.08204 0.35506-0.49221 0.059177-0.41017 0.59177-0.45119-0.11835-0.73831 0.17753-0.82035 0.82847-0.41017 0.059177-0.16407 0.82847-0.45119 1.006-0.04102 1.1244-0.2461 2.1895-0.16407 3.3731 0.12305 1.8345 0.12305 3.7281 0.45119 5.6218 0.16407 0.94682 0.12305 2.012 0.2461 3.018 0.04102 0.65094 0.08204 1.3611 0.20509 2.0712 0.08203 0.53259 0.12305 1.2427 0.16407 1.7753 0 0.53259-0.08203 1.006-0.08203 1.5386 0 0.23671 0.04102 0.53259 0.08203 0.94682 0.36916-1.1244 0.41017-1.8936 0.28712-2.9588-0.04102-0.23671-0.04102-0.7693 0-0.82847 0.28712-0.23671 0.20509-0.65094 0.2461-1.006 0-0.47341 0-1.0652 0.04102-1.5386 0.20509-0.7693 0.12305-1.5386 0.12305-2.3671 0-0.88765-0.04102-1.7753-0.12305-2.7221 0-0.14794 0.08204-0.32547 0.08204-0.47341 0.28712 1.1244 0.32814 2.2487 0.32814 3.3731 0 0.11835 0 0.35506 0.08203 0.35506 0.28712 0.23671 0.16407 0.59177 0.08203 0.82847v1.006c0 0.26629 0.08204 0.62135 0.08204 0.88765-0.08204 0.35506 0.16407 0.41424 0.20509 0.65094v0.23671c0.08203 1.3611 0.08203 2.6038 0.08203 3.9057v1.5978c0.04102 0.59176 0.04102 1.2427 0.04102 1.8345 0 0.29588 0.08203 0.47341 0.28712 0.47341 0.08203 1.2427 0.12305 2.4262 0.12305 3.5506 0 0.94682 0.04102 1.8936-0.16407 2.7221-0.08203 0.29588 0.04102 0.59176 0.12305 0.82847 0.04102 0.35506 0.16407 0.76929 0.16407 1.1244 0 0.41424 0 0.82847 0.04102 1.1244 0.08204 0.59177 0.08204 1.0652-0.16407 1.5978-0.04102 0.23671-0.16407 0.41424-0.28712 0.65094-0.04102-0.17753-0.12305-0.35506-0.2461-0.47341 0-2e-6 0-3e-6 -1e-6 -5e-6zm7.014-12.427c0 0.29588-0.41017 0.47341-0.16407 0.88765 0 0 0 0.17753-0.04102 0.17753-0.12305 0.23671-0.2461 0.47341-0.41017 0.71012h-0.86136c-0.16407-0.47341-0.16407-0.47341-0.53323-0.05918-0.04102 0.05918-0.16407 0-0.28712 0.05918 0.08203 0.11836 0.12305 0.17753 0.12305 0.29588 0.06152 0.08876 0.06153 0.14795 0.12305 0.23671-0.08203 0.05918-0.12305 0.17753-0.16407 0.17753-0.2461-0.11834-0.41017-0.29588-0.77933-0.35506 0.20508-0.14794 0.32814-0.20712 0.53323-0.35506-0.41017-0.71012-0.28712-1.5386-0.2461-2.4854 0-0.88765-0.04102-1.8936-0.08203-2.7813-0.08203-1.5978-0.2461-3.1364-0.28712-4.7341-0.08204-0.41424 0.04102-0.82847 0.08203-1.2427 0-0.05918 0.08203-0.17753 0.08203-0.23671 0-0.41424-0.08203-0.82847-0.08203-1.2427 0-1.006-0.08203-2.012 0.08203-3.018 0.04102-0.65094-0.12305-1.3611-0.12305-2.1304-0.04102-0.05918-0.04102-0.23671-0.04102-0.41424 1.3126-0.23671 2.379 0.47341 3.3224 1.7161 0.61526 0.82847 1.0665 1.9528 1.4766 2.8996 0.16407 0.35506 0.16407 0.7693 0.2461 1.1835 0.04102 0.59177 0.20509 1.1835 0.28712 1.8345 0.04102 0.59177 0 1.2427 0 1.8345 0 0.11836-0.12305 0.23671-0.08203 0.41424 0.08203 0.88765-0.32814 1.7161-0.49221 2.5446-0.08203 0.41424-0.28712 0.7693-0.41017 1.0652-0.12304 0.6509-0.28713 1.4203-0.41017 2.0712-0.12305 0.7693-0.28712 0.94682-0.86136 0.94682h4e-6zm-0.28712 2.8996c0.08203 0.23671 0.12305 0.47341 0.16407 0.71012-0.08203 0.17752-0.28713 0.35507-0.36916 0.53259-0.08204-0.11838-0.12305-0.29586-0.20509-0.41424-0.04102 0.11836-0.08203 0.23671-0.16407 0.29588-0.16407-0.88765-0.16407-0.88765 0.57424-1.1244zm1.7227 0.53259c-0.12305 0-0.20509 0.11835-0.32814 0.11835-0.41017-0.11835-0.41017-0.11835-0.6973 0.05918-0.04102-0.05918-0.16407-0.17753-0.28712-0.29588 0.04102-0.11836 0.12305-0.29588 0.16407-0.41424 0.41017 0.11835 0.82035 0.23671 1.1485 0.41424v0.11835 1e-5zm-0.41017-1.0652c0.08203-0.23671 0.08203-0.47341 0.08203-0.71012 0.20509-0.29588 0.49221-0.41424 0.90238-0.11835-0.32814 0.23671-0.61526 0.53259-0.98442 0.82847 2e-6 -3e-6 3e-6 -5e-6 5e-6 -8e-6zm0.20509 1.7753c-0.28712 0.11834-0.53323 0.53259-0.77933-0.11836 0.12305-0.05918 0.20509-0.17753 0.28712-0.29588 0.20509 0.11836 0.28712 0.23671 0.49221 0.41424v8e-6zm6.1116-10.948c0.2461 0.23671 0.20509 0.47341 0.08203 0.88765-0.08203-0.41424-0.08203-0.65094-0.08203-0.88765zm-4.799 8.048c-0.12305 0.23671-0.16407 0.41424-0.36916 0.65094 0-0.41424 0.08203-0.59177 0.36916-0.65094zm-5.0451 2.3671c-0.2461-0.17753-0.28712-0.23671-0.41017-0.29588v-0.11836h0.20509c0.08204 0.11836 0.08204 0.17753 0.20509 0.41424v8e-6zm-0.82035-9.1724v-0.59177h0.16407c-0.04102 0.17753-0.04102 0.41424-0.12305 0.59177h-0.04102 2e-6zm0.2461-1.3611c0 0.11835-0.08204 0.29588-0.08204 0.41424h-0.12305c0-0.14794 0.08203-0.2663 0.08203-0.41424h0.12305 1e-5zm-0.98442 23.316v-0.23671c0-0.11835 0.04102-0.11835 0.04102-0.11835 0.08203 0.17753 0.08203 0.23671 0.08203 0.35506h-0.12305s3e-6 -8e-6 3e-6 -8e-6zm-3.7326-15.504c0.04102 0 0.12305 0 0.16407 0.05918 0 0.02959 0.04102-0.20712 0.04102-0.23671-0.04102-0.71012-0.04102-1.4794 0.20509-2.1304 0.04102-0.17753 0.08203-0.53259-0.12305-0.7693-0.36916 1.006-0.28712 2.0712-0.28712 3.0772l-3e-6 -3e-6zm15.628-16.214c-0.082038-0.3551-0.12305-0.76926-0.20509-1.1244-0.20509 0.41424-0.16407 0.82847 0.20509 1.1244zm-2.5431-4.5566c0 0.059176-0.04102 0.059176-0.12305 0.11835 0.2461 0.17753 0.12305 0.7693 0.57424 0.94682-0.16407-0.41424-0.28712-0.7693-0.45119-1.0652zm-12.92 14.557h-0.12305v1.2427c0.08204-0.41424 0.08204-0.82847 0.12305-1.2427zm15.669 3.1364h0.12305c0-0.05918 0.04102-0.23671 0.12305-0.41424-0.08203-0.05918-0.08203-0.05918-0.12305-0.05918-0.04102 0.17753-0.04102 0.29588-0.12305 0.47341v3e-6z"/>
  <path d="m73.97 29.659c-0.32814-0.71012-0.28712-1.6569-0.16407-2.3671 0.16407-1.1835 0.12305-2.2487-0.08203-3.3139-0.04102-0.35506-0.08203-0.71012-0.04102-1.006 0 1e-6 -0.12305-1.8936-0.12305-1.8936-0.04102-0.17753-0.04102-0.35506-0.04102-0.59176-0.08203-0.94682 0-1.8345-0.16407-2.6629-0.20509-1.0652-0.2461-2.0712-0.41017-3.1364-0.12305-0.94682-0.2461-1.8345-0.57424-2.6629-0.08203-0.17753 0-0.41424 0-0.65094 0-0.17753 0.04102-0.35506 0-0.53259-0.12305-0.29588-0.28712-0.71012-0.41017-1.1244-0.12306-0.41425-0.28712-0.82846-0.41017-1.2427-0.20509-0.65094-0.45119-1.2427-0.73831-1.8936 0 0-0.16407-0.53259-0.41017-0.17753 0 0-0.12305-0.11836-0.16407-0.11836-0.04102-0.23671-0.04102-0.41424-0.12305-0.53259-0.04102-0.35506-0.12305-0.71012-0.20509-0.94682-0.08203-0.05918-0.2461 0-0.36916-0.05918-0.041021-0.41425-0.16406-0.82846-0.20509-1.2427-0.28712-0.17753-0.57424-0.41424-0.86137-0.53259-0.41017-0.23671-0.77933-0.53259-1.1485-0.65094-0.49221-0.17753-0.98442 0.17753-1.3946-0.41424h-0.04102c-0.65628 0-1.2715-0.059177-1.9688 0-0.53323 0-1.1075 0-1.5997 0.53259-0.2461 0.23671-0.53323 0.41424-0.73831 0.65094-0.57424 0.41424-1.1485 0.71012-1.7227 1.1244-0.2461 0.29588-0.49221 0.59177-0.77933 0.82847 0.14851 0.21426 0.09759 0.1408 0.2461 0.35506-0.12305 0.17753-0.28712 0.23671-0.41017 0.41424-0.04102-0.17753-0.04102-0.35506-0.12305-0.47341-0.04614 0.066578-0.282 0.40683-0.32814 0.47341 0.04102 0.05918 0.12305 0.23671 0.12305 0.23671-0.12305 0.41424-0.2461 0.7693-0.36916 1.006-0.16407 0.23671-0.32814 0.59177-0.61526 0.41424 0 0.41424 0.28712 0.7693-0.04102 1.0652-0.36916 0.35506-0.36916 0.94682-0.41017 1.4202-0.08204 0.35506-0.08204 0.7693-0.2461 1.0652-0.16407 0.35506-0.20509 0.65094 0 1.006 0.2461 0.41424 0.28712 1.006 0 1.4202-0.12305 0.23671-0.16407 0.59176-0.12305 0.82847 0.12305 0.47341 0.08203 0.88765 0 1.3019 0 0.38465-0.16407 0.62135-0.16407 1.006-0.04102 0.7693-0.04102 1.5978-0.04102 2.3079 0 0.56218-0.2461 1.0356-0.2461 1.5978 0.08203 1.4794-0.28712 2.9588 0 4.3791 0.08203 0.05918 0 0.17753 0 0.23671-0.12305 0.53259-0.12305 0.94682-0.04102 1.4202 0.04102 1.1835 0.04102 2.4262 0.12305 3.5506 0 0.38465 0.04102 0.79888 0.04102 1.1835 0 1.7753 0.04102 3.6098 0.04102 5.3851 0 0.82847-0.04102 1.6569-0.08203 2.3671 0.77933 0.29588 1.5997 0.59176 2.338 0.82847 0.32814 0.17753 0.57424 0.11836 0.6973-0.29588 0.12305-0.7693 0.28712-0.94682 0.86137-0.7693-0.08203-0.23671-0.08203-0.41424-0.12305-0.59176 0.82035-0.11835 0.98442-0.41424 0.86137-1.3019-0.2461 0-0.12305 0.65094-0.45119 0.47341-0.08203-0.82847 0.12305-1.5386 0.28712-2.3079 0.04102-0.23671 0.12305-0.47341 0.12305-0.71012 0.04102-0.53259 0-1.006 0.04102-1.5978 0-0.2663 0.04102-0.62136 0.04102-0.88765 0.08203-0.29588 0.12305-0.59177 0.12305-0.94682 0.08203-1.006 0.08203-2.0712 0.08203-3.0772 0.02051 0 0.34865 0.11835 0.32814 0.11835-0.04102-0.41424-0.12305-0.82847-0.16407-1.1835 0.28712-0.17753 0.28712 0.17753 0.28712 0.35506 0.04102 0.05918 0.12305 0.05918 0.16407 0.17753 0-0.05918 0.04102-0.65094 0.04102-0.59177 1.9278-0.53259 3.8146-0.65094 5.6604-1.2427 0 1e-6 0.04102 0.47341 0.04102 0.47341-0.04102 0.65094-0.12305 1.4202-0.12305 2.0712-0.03967 2.5181-0.1244 5.1748-0.16407 7.693-0.04102 0.11835 0 0.35506 0.04102 0.41424 0.20509 0.53259 0.36916 0.94682 0 1.3611-0.04102 0.05918-0.08203 0.29588-0.04102 0.41424 0.28712 0.47341 0.28712 1.1244 0.28712 1.7161 0.04102 0.23671 0.16407 0.53259 0.2461 0.76929 0.04102-0.65094 0.04102-0.65094 0.36916-0.65094 0 0.11834-0.04102 0.41424 0 0.53259 0 0.17753 0.20509 0.29588 0.28712 0.41424-0.04102 0.35506-0.04102 0.71012-0.04102 0.94682 0.16407-0.41424 0.45119-0.11834 0.61526-0.23671 0.08203 0.11836 0.08203 0.23671 0.12305 0.47341 0.12305-0.23671 0.2461-0.41424 0.36916-0.65094 0.04102 0.41424 0.08203 0.71012 0.16407 1.1244 0.12305-0.05918 0.20509-0.05918 0.28712-0.11835 0.28712-0.29588 0.57424-0.71012 0.98442-0.35506 0.12305 0 0.24611-0.23671 0.36916-0.23671-0.04102-0.23671-0.04102-0.53259-0.08203-0.65094-0.2461-0.35506-0.2461-0.35506-0.20509-0.82847 0.12305 0.23671 0.12305 0.47341 0.2461 0.53259 0.32814 0.17753 0.32814 0.53259 0.28712 0.94682 0.41017 0 0.41017 0 0.53323-0.82847 0.08203 0.29588 0.16407 0.47341 0.28712 0.82847 0.04102-0.41424 0.08203-0.7693 0.08203-1.0652 0.49221 0.05918 0.49221 0.05918 0.57424-0.53259 0.12305-0.41424 0.12305-1.006 0.6973-0.88765-0.04102-0.35506-0.04102-0.65094-0.12305-0.94682-0.04102-0.05918-0.20509-0.05918-0.32814-0.11835 0.2461-0.59176 0.45119-1.2427 0.2461-1.9528-0.12305-0.41423 0.04102-0.82847-0.08203-1.2427 0-0.05918 0.12305-0.23671 0.16407-0.29588 0.08203-0.17753 0.12305-0.23671 0.20509-0.35506 0-0.59177 0.04102-1.0652 0-1.5386-0.20509-0.82847-0.08203-1.5978 0.04102-2.3671 0.04102-0.23671 0.04102-0.41424 0.04102-0.53259-0.01368-0.03945-0.02735-0.0789-0.04103-0.11835zm-12.059-8.1664c-0.04102-0.17753-0.04102-0.29588-0.04102-0.29588v-4.9708c0-0.11836 0.08203-0.41424 0.16407-0.71012 0 0 0.16407 0.23671 0.16407 0.23671 0.04102 0 0.04102 0.05918 0.16407 0.17753 0.12305-0.94682 0.12305-1.6569 0.2461-2.4262 0.20509-1.4794 0.45119-2.8996 0.73831-4.3199 0.2461-0.88765 0.86136-1.0652 1.3946-0.47341 0.36916 0.47341 0.61526 1.0652 0.86136 1.7161 0.65628 1.7753 1.1485 3.6689 1.5997 5.5626 0.12305 0.35506 0.12305 0.7693 0.16407 1.1835 0.12305 0.82847 0.16407 1.7161 0.28712 2.6629-0.57424 0-1.0254 0.11834-1.5587 0.29588-0.90238 0.41424-1.8868 0.65094-2.7892 0.94682-0.49221 0.11835-0.9434 0.23671-1.3946 0.41424h3e-6zm3.4044-19.232c0.10254 0 0.2256 0.059176 0.32814 0.059176v0.17753c-0.12305 0-0.2461-0.059176-0.32814-0.17753v-0.059176zm8.6957 27.517c0.2461-0.59177 0.2461-1.1244 0.12305-1.6569h-0.16407v1.5386c0.01367 0.03945 0.02735 0.0789 0.04102 0.11835z"/>
  <path d="m89.269 38.595c-0.04102 0-0.12305-0.11836-0.16407-0.17753v-0.23671c0.2461 0.05918 0.41017 0.05918 0.57424 0.23671 1.1075-1.1835 1.9688-2.6038 2.8302-4.2607 0.16407 0.05918 0.28712 0 0.41017-0.41424 0.04102-0.35506 0.16407-0.59177 0.28712-0.94682 0-0.23671 0-0.53259 0.04102-0.82847 0.08204-0.76929 0.2461-1.4202 0.28712-2.1895 0.12305-0.82847 0.12305-1.5386 0.12305-2.4262 0-0.05918 0-0.11836-0.04102-0.41424-0.12305 0.94682-0.2461 1.7161-0.73831 2.2487-0.08203-0.41424-0.28712-0.29588-0.28712-0.71012 0.04102-0.47341 0-1.006 0-1.4202 0.04102-1.1244-0.12305-1.8936-0.53322-2.7813-0.16407-0.29588-0.28712-0.29588-0.49221-0.05918 0 0.23671 0 0.53259 0.08203 1.006-0.2461-0.47341-0.49221-0.76929-0.57424-1.1835-0.12305-0.23671-0.12305-0.71012-0.2461-1.006-0.12305 0.05918-0.16407 0.11836-0.28712 0.23671-0.04102-0.23671-0.04102-0.65094-0.12305-0.88765-0.20509-0.05918-0.49221-0.05918-0.6973-0.23671-0.45119-0.47341-0.86136-1.0652-1.3946-1.3611-1.3536-1.006-2.7071-1.7753-4.1017-2.6629-0.45119-0.23671-0.77933-0.88765-0.73831-1.7161 0.04102-0.65094 0.12305-1.3611 0.2461-1.8936 0.16407-1.3611 0.32814-2.6038 0.57424-3.7281 0.16407-0.88765 0.32814-1.5978 0.6973-2.1895 0.32814-0.53259 0.61526-1.4202 1.1895-1.6569 0.06153 0 0.06153-0.11836 0.12305-0.11836 0.41017-0.82847 0.9434-1.0652 1.5176-1.0652 0.9434 0 1.8048 0.11836 2.6661 0.23671 0.16407-0.35506 0.36916-0.59177 0.57424-0.94682 0.28712-0.35506 0.57424-0.17753 0.9434-0.11835 0.04102-0.7693-0.77933-0.23671-0.57424-1.006 0.12305-0.23671 0.45119-0.23671 0.45119-0.65094h-0.49221c0.04102-0.7693-0.16407-1.1835-0.57424-1.3611-0.12305 0-0.28712-0.11835-0.41017-0.23671-0.20509-0.35506-0.45119-0.59177-0.73831-0.71012-1.5176-0.53259-2.9943-0.82847-4.5119-0.94682-0.41017 0-0.86137-0.17753-1.1485 0.47341-0.49221-0.35506-0.57424-0.35506-0.86137 0.17753-0.2461 0.47341-0.53323 0.88765-0.98442 0.59177 0 0.029588-0.08203-1.0948-0.08203-1.1244-0.16407 0.47341-0.28712 0.82847-0.32814 1.1244-0.49221 0.059177-0.90238 0.11835-1.2715 0.29588 0.08203-0.41424 0.16407-0.59177 0.20509-0.88765-0.12305-0.059177-0.12305-0.059177-0.16407-0.059177-0.45119 0-0.6973 0.53259-1.0254 0.94682-0.16407 0.23671-0.36916 0.53259-0.2461 0.94682 0 0.059176-0.04102 0.23671-0.12305 0.29588-0.28712 0.7101-0.57425 1.3611-0.86136 2.0712-0.08203 0.17753-0.16407 0.35506-0.28712 0.53259-0.2461 0.23671-0.45119 0.59177-0.28712 1.1835 0.04102 0.05918-0.08203 0.47341-0.16407 0.59177-0.28712 0.35506-0.28712 0.82847-0.2461 1.2427 0.04102 1.006-0.16407 1.8345-0.32814 2.6629-0.20509 0.65094-0.41017 1.3611-0.65628 2.012 0 0.05918 0 0.11835 0.08203 0.29588 0.04102 0.71012 0 1.2427-0.12305 1.9528-0.28712 1.3611 0 2.7813 0.12305 4.1424l0.04102 1.5978c0 0.41424 0.12305 0.7693 0.28712 1.006 0.41017 0.29588 0.82035 0.7693 1.2715 1.1835 0.08203 0 0.20509-0.11834 0.28712-0.11834-0.73831-0.7693-1.3946-1.4202-1.4356-2.8997 0.20509 0.23671 0.49221-0.23671 0.73831 0.17753 0.16407 0.35506 0.53323 0.65094 0.77933 0.76929 0.45119 0.47341 0.90238 0.88765 1.3536 1.1835 0.28712 0.17753 0.65628 0.23671 0.82035 0.7693 0.45119-0.11836 0.6973 0.41424 0.98442 0.88765 0.12305 0.35506 0.2461 0.17753 0.28712-0.11836 0.53323 0.11836 0.77933 0.82847 0.9434 1.7161 0.12305-0.29588 0.16407-0.41424 0.28712-0.59176 0.32814 0.41424 0.6973 0.88765 1.1895 0.82847 0.08203 0 0.16407 0.23671 0.28712 0.35506 0.32814 0.23671 0.65628 0.53259 0.9434 0.88765 0.16407 0.17753 0.28712 0.35506 0.41018 0.71012 0.16407 0.35506 0.45119 0.71012 0.45119 1.0652 0 0.41424-0.20509 0.88765-0.32814 1.2427-0.16407 1.2427-0.6973 1.8936-1.4766 2.4262-0.49221 0.35506-1.0665 0.71012-1.6407 0.94682 0 0.23671 0 0.35506 0.04102 0.53259-0.32814 0-0.61526 0.11835-0.86136-0.29588-0.12305-0.11835-0.2461-0.11835-0.28712-0.11835-0.36916 0.23671-0.6973 0-0.98442-0.17753-0.2461-0.17753-0.49221-0.17753-0.57424 0.05918-0.28712 0.47341-0.57424 0.47341-0.86136 0.23671-0.28712-0.11835-0.57424-0.29588-0.77933 0.41424 0 0-0.08203 0.05918-0.08203 0-0.2461-0.17753-0.28712 0-0.41017 0.23671h-0.32814-0.04102c-0.08203 0.05918-0.12305 0.17753-0.16407 0.29588-0.57424 0.35506-0.9434 1.0652-0.98442 2.1895 0 0.29588 0 0.41424 0.12305 0.65094 0.61526 0.88765 1.3126 1.7753 1.9688 2.6038 0.20509 0.41424 0.61526 0.41424 0.86137 0.94682 0 0 0.12305 0.11835 0.16407 0 0.2461-0.17753 0.41017 0.11835 0.57424 0.35506 0.12305 0.05918 0.2461 0.29588 0.45119 0.47341-0.04102-0.47341-0.04102-0.82847-0.04102-1.1244h2.5431v-0.17753h-1.0254v-0.11835h1.7227c0.04102 0 0.12305 0 0.16407 0.05918 0.32814 0.35506 0.32814 0.35506 0.61526 0.17753-0.04102-0.11835-0.08203-0.11835-0.28712-0.17753 0.57424-0.05918 0.90238-0.23671 1.1895-0.05918 0.53323 0.29588 0.98442-0.11835 1.3946-0.41424 0.32814-0.29588 0.61526-0.71012 1.0665-0.59177 0.12305 0.11835 0.32814-0.11834 0.49221-0.17753 0.2461-0.23671 0.45119-0.65094 0.73831-0.71012v-1.5e-5zm-10.624-24.558c0.04102-1.1244 0.20509-2.2487 0.32814-3.1955h0.16407c0 0.02959 0.08203 0.503 0.08203 0.47341 0.12305 1.1835 0.28712 2.1895-0.08203 3.3139-0.04102 0.29588 0 0.82847-0.04102 1.3019-0.45119-0.41424-0.12305-1.1244-0.28712-1.5386-0.04102 0.11835-0.16407 0.11835-0.32814 0.17753-0.12305-0.65094-0.2461-1.4202-0.12305-2.3671 0.28712 0.62135 1e-6 1.2131 0.28712 1.8345h3e-6zm8.9828 25.15c0.28712-0.94682 0.53323-1.7161 1.3536-1.2427-0.16407 0-0.32814 0-0.45119 0.11835-0.16407 0.41424-0.32814 0.65094-0.49221 1.006-0.04102 0.05918-0.20509 0.05918-0.41017 0.11835v1.5e-5zm-9.2699-21.54c0.32814 0.29588 0.86136 0.29588 0.77933 1.2427-0.73831-0.65094-0.73831-0.65094-0.77933-1.2427zm-0.08203-1.7161c0.20509 0.11835 0.36916 0.29588 0.53323 0.53259 0.2461 0.23671 0.16407 0.53259-0.12305 0.7693-0.16407-0.35506-0.28712-0.82847-0.45119-1.2427l0.04102-0.05918c0 1e-6 -1e-6 3e-6 -2e-6 4e-6zm0.41017 4.9708c0.57424-0.23671 0.57424-0.17753 0.73831 0.59177-0.20509-0.29588-0.36916-0.41424-0.73832-0.59177h5e-6zm-1.1075-5.5626v0.47341h-0.04102v-0.47341h0.04102zm0.61526-9.4682c0.04102-0.23671 0.16407-0.35506 0.20509-0.65094 0 0.11835 0.08203 0.11835 0.08203 0.11835-0.08203 0.17753-0.12305 0.41424-0.20509 0.65094 0 0-0.04102 0-0.08203-0.11835zm16.12 23.079c-0.12305 0.71012-0.41017 1.1835-0.41017 1.8936 0.16407-0.65094 0.49221-0.94682 0.41017-1.8936zm-12.551-3.6098c-0.04102-0.88765-0.04102-0.88765-0.65628-0.94682 0.28712 0.35506 0.49221 0.65094 0.65628 0.94682zm-4.0607 9.054h0.04102c0.20509-0.17753 0.36916-0.41424 0.08203-0.7693-0.12305 0.23671-0.20509 0.41424-0.2461 0.59177 0 0 0.04102 0.17753 0.12305 0.17753h2e-6z"/>
  <path d="m106.54 20.25c-0.041-0.35506-0.16407-0.82847-0.16407-1.1835 0.041-1.006 0.12305-2.1304 0.16407-3.1955 0.0821-0.05918 0.16407-0.23671 0.28712-0.41424 0 0.05917-0.041-0.23671-0.041-0.29588-0.0821 0.05918-0.16407 0.17753-0.2461 0.17753 0-0.23671-0.041-0.53259-0.041-0.7693 0.041-0.53259 0.16407-1.0652 0.16407-1.6569s-0.16407-1.1244-0.16407-1.7161c-0.0821-1.006-0.0821-1.9528-0.0821-2.8405 1.0254-0.05918 1.9688-0.29588 2.9122-0.29588 0.45119 0 0.86136-0.05918 1.3536-0.23671 0.12306-0.11836 0.24611-0.11836 0.36916-0.11836 0.36916 0.17753 0.73832 0.17753 1.0665 0 0.16407-0.05918 0.28712-0.29588 0.32814-0.17753 0.41017 0.35506 0.57424-0.17753 0.86135-0.41424-0.28711-0.35506-0.4922-0.47341-0.77932-0.65094 0.32814-0.11836 0.65628-0.11836 1.0254-0.23671v-0.17753c-0.36915-0.05918-0.65627-0.23671-0.98441-0.47341 0.16407-0.47341 0.16407-0.41424-0.12305-0.71012-0.36916-0.35506-0.73832 0-1.0665-0.35506-0.041-0.17753-0.12305-0.47341-0.2461-0.76929 0.12305-0.059178 0.2461-0.17753 0.36915-0.23671 0.041 0.41437 0.12302 0.70998 0.16407 1.1244 0.24611-0.17753 0.53323-1.0652 0.86137-1.2427-0.16407-0.17753-0.2461-0.23671-0.36916-0.47341 0.12306-0.11835 0.20509-0.23671 0.24611-0.35506-0.32814-0.23671-0.53323-0.29588-0.6973-0.47341-0.20509 0.11835-0.36916 0.23671-0.57424 0.41424 0-0.23671 0-0.41424 0.041-0.59177-0.9434-0.29588-1.8868-0.35506-2.7892 0-0.16407 0.11835-0.32814 0.11835-0.45119 0.11835-1.5176 0.059177-3.0763 0.29588-4.594 0.059177-0.2461 0-0.53323 0.23671-0.82035 0.29588-0.45119 0.11835-1.0254 0.11835-1.4766 0.17753-0.73832 0.059176-1.5176-0.17753-2.256 0.059176-0.90238 0.23671-1.8868 1.2427-2.7482 2.0712-0.32814 0.29588-0.57424 1.3611-0.77933 1.9528-0.04102 0.23671-0.08203 0.53259-0.16407 0.71012 0.16407 0.29588 0.57424 0.05918 0.53323 0.7693 0 0 0.12305 0.17753 0.16407 0.23671 0.73831 0.17753 1.4356 0.41424 2.1739 0.35506 0.49221-0.11836 0.9434-0.17753 1.3946-0.17753 0.41018 0 0.86137 0.05918 1.2715 0.05918 0.038 2.0816 0.1671 4.3095 0.20508 6.3911v6.3319c0.0821-0.05918 0.12306-0.05918 0.24611-0.17753-0.16407 1.1835-0.28712 2.0712-0.24611 3.1955 0.0821 1.7753 0 3.4322 0 5.1484v1.8936l0.0821 2.0712v1.8345c-0.0821 1.0652 0.12305 2.1304-0.16407 3.1955 0.20509 0.23671 0.32814 0.41424 0.20509 0.94682-0.12306 0.23671-0.041 0.71012 0 0.94682 0.28712 0.23671 0.41017 0.65094 0.53321 1.0652 0.16407 0.41424 0.4512 0.71012 0.77934 0.71012 0.2461-0.17753 0.45119-0.17753 0.61526 0 0.28712 0.17753 0.53323 0.17753 0.86137 0.05918 0-1.2427-0.4512-2.4854-0.12306-3.9057 0.28713 0.17753 0.57425 0.17753 0.94341 0.23671 0.041 1.1244-0.20509 2.2487 0.36915 3.3139 0.69729 0.11835 0.73831-0.88765 1.0254-1.4794h0.12305c0.12306 0.17753 0.24611 0.23671 0.4512 0.59177 0.0821-0.17753 0.0821-0.41424 0.12305-0.41424 0.45119-0.05918 0.61526-0.71012 0.73831-1.1835 0.28713-1.3019 0.12306-2.6629-0.12305-4.024-0.041-0.29588-0.2461-0.53259-0.32814-0.94682-0.12305-0.29588-0.16407-0.7693-0.2461-1.3611-0.041-0.47341 0.20508-1.006-0.0821-1.3611 0.20509-0.05918 0.16407-0.47341 0.16407-0.71012v-5.9177c0-0.05918 0-0.23671-0.0821-0.41424-0.16407 0.17753-0.28713 0.29588-0.36916 0.35506 0.041-0.23671-0.0821-0.53259 0.20509-0.53259 0.0821-0.11835 0.16407-0.17753 0.16407-0.29588 0.12305-0.35506 0.12305-2.1895 0-2.5446-0.28713 0.47341 0.12305 1.3019-0.4512 1.7753 0.12306-1.1244 0.16407-2.1304 0.28713-3.1364 2e-5 1e-6 4e-5 1e-6 5e-5 2e-6zm-4.3889 12.9c-0.20508 0-0.28712-0.17753-0.20508-0.41424 0.16407-0.94682 0.041-1.8345-0.12306-2.7813-0.12305-0.59177-0.12305-1.2427-0.20508-1.7753 0-1e-6 -0.0821-0.23671-0.0821-0.23671 0.41018-1.9528 0.12305-4.0832 0.45119-5.9768 0-0.11834 0-0.11834 0.16407-0.17753 0 0.88765 0.0821 1.6569 0 2.5446 0 0.65094-0.12305 1.1835-0.041 1.8345 0 0.47341-0.12306 0.94682 0.20508 1.1835 0.12306 0.88765 0.28713 1.8345-0.041 2.8997-0.12306 0.17753-0.12306 0.41424-0.12306 0.71012v2.1895c-0.041 0.29588-0.041 0.59177-0.12305 1.0652-0.32814-0.59177 0.12305-0.71012 0.12305-1.0652h6e-5zm1.7638 3.4914c-0.12306-2.012-0.12306-4.0832 0.0821-6.2135 0.32814 2.3671 0.28712 5.6218-0.0821 6.2135zm-1.3946-2.6629c-0.12305-0.47341-0.20509-0.82847-0.0821-1.2427 0.0821-0.23671 0-0.41424 0-0.71012 0-0.11836 0-0.23671 0.0821-0.53259 0.28712 1.3611 0.45119 1.5386 0 2.4854zm4.0197-13.729c0.28712 0.11836 0.2461-0.23671 0.16407-0.53259-0.041 0.17753-0.0821 0.29588-0.16407 0.53259zm0.28712-2.0712s-0.041-0.05918-0.12305-0.05918c0 0.23671 0 0.41424-0.041 0.53259h0.12305c0.041-0.11835 0.041-0.23671 0.041-0.47341v3e-6zm-4.594 9.9417c0-0.11834-0.0821-0.11834-0.12305-0.11834 0 0.41424-0.16407 0.71012 0.12305 1.1835v-1.0652-8e-6z"/>
  <path d="m132.71 29.659c-0.32814-0.71012-0.28712-1.6569-0.16407-2.3671 0.16407-1.1835 0.12306-2.2487-0.0821-3.3139-0.041-0.35506-0.0821-0.71012-0.041-1.006 0-0.65094-0.12305-1.2427-0.12305-1.8936-0.041-0.17753-0.041-0.35506-0.041-0.59176-0.0821-0.94682 0-1.8345-0.16407-2.6629-0.20509-1.0652-0.2461-2.0712-0.41017-3.1364-0.12306-0.94682-0.24611-1.8345-0.57425-2.6629-0.0821-0.17753 0-0.41424 0-0.65094 0-0.17753 0.041-0.35506 0-0.53259-0.12305-0.29588-0.28712-0.71012-0.41017-1.1244-0.12309-0.41434-0.28709-0.82837-0.41018-1.2427-0.20509-0.65094-0.45119-1.2427-0.7383-1.8936 0 0-0.16407-0.53259-0.41018-0.17753 0 0-0.12305-0.11836-0.16407-0.11836-0.041-0.23671-0.041-0.41424-0.12305-0.53259-0.041-0.35506-0.12305-0.71012-0.20509-0.94682-0.0821-0.05918-0.2461 0-0.36916-0.05918-0.041-0.41434-0.16404-0.82837-0.20508-1.2427-0.28715-0.17753-0.57427-0.41424-0.86139-0.53259-0.41018-0.23671-0.77933-0.53259-1.1485-0.65094-0.49221-0.17753-0.98441 0.17753-1.3946-0.41424h-0.041c-0.65628 0-1.2716-0.059177-1.9688 0-0.53323 0-1.1075 0-1.5997 0.53259-0.24609 0.23671-0.53321 0.41424-0.7383 0.65094-0.57425 0.41424-1.1485 0.71012-1.7227 1.1244-0.2461 0.29588-0.49221 0.59177-0.77933 0.82847 0.0535 0.077187 0.19261 0.27787 0.24611 0.35506-0.12306 0.17754-0.28711 0.2367-0.41018 0.41424-0.041-0.17753-0.041-0.35506-0.12305-0.47341-0.0462 0.066578-0.28198 0.40683-0.32814 0.47341 0.041 0.05918 0.12305 0.23671 0.12305 0.23671-0.12305 0.41424-0.2461 0.7693-0.36916 1.006-0.16406 0.23671-0.32813 0.59177-0.61525 0.41424 0 0.41424 0.28712 0.7693-0.041 1.0652-0.36915 0.35506-0.36915 0.94682-0.41017 1.4202-0.0821 0.35506-0.0821 0.7693-0.24611 1.0652-0.16407 0.35506-0.20508 0.65094 0 1.006 0.24611 0.41424 0.28713 1.006 0 1.4202-0.12305 0.23671-0.16407 0.59176-0.12305 0.82847 0.12305 0.47341 0.0821 0.88765 0 1.3019 0 0.38465-0.16407 0.62135-0.16407 1.006-0.041 0.7693-0.041 1.5978-0.041 2.3079 0 0.56218-0.2461 1.0356-0.2461 1.5978 0.0821 1.4794-0.28712 2.9588 0 4.3791 0.0821 0.05918 0 0.17753 0 0.23671-0.12305 0.53259-0.12305 0.94682-0.041 1.4202 0.041 1.1835 0.041 2.4262 0.12305 3.5506 0 0.38465 0.041 0.79888 0.041 1.1835 0-0.05918 0.041 5.3259 0.041 5.3851 0 0.82847-0.041 1.6569-0.0821 2.3671 0.77934 0.29588 1.5997 0.59176 2.338 0.82847 0.32814 0.17753 0.57425 0.11836 0.6973-0.29588 0.12305-0.7693 0.28712-0.94682 0.86137-0.7693-0.0821-0.23671-0.0821-0.41424-0.12306-0.59176 0.82035-0.11835 0.98442-0.41424 0.86137-1.3019-0.2461 0-0.12305 0.65094-0.45119 0.47341-0.0821-0.82847 0.12305-1.5386 0.28712-2.3079 0.041-0.23671 0.12305-0.47341 0.12305-0.71012 0.041-0.53259 0-1.006 0.041-1.5978 0-0.2663 0.041-0.62136 0.041-0.88765 0.0821-0.29588 0.12305-0.59177 0.12305-0.94682 0.0821-1.006 0.0821-2.0712 0.0821-3.0772 0.0205 0 0.34864 0.11835 0.32814 0.11835-0.041-0.41424-0.12306-0.82847-0.16407-1.1835 0.28712-0.17753 0.28712 0.17753 0.28712 0.35506 0.041 0.05918 0.12305 0.05918 0.16407 0.17753 0-0.05918 0.041-0.65094 0.041-0.59177 1.9278-0.53259 3.8146-0.65094 5.6604-1.2427 0 1e-6 0.041 0.47341 0.041 0.47341-0.041 0.65094-0.12305 1.4202-0.12305 2.0712-0.0397 2.5191-0.12437 5.1738-0.16407 7.693-0.041 0.11835 0 0.35506 0.041 0.41424 0.20509 0.53259 0.36916 0.94682 0 1.3611-0.041 0.05918-0.0821 0.29588-0.041 0.41424 0.28712 0.47341 0.28712 1.1244 0.28712 1.7161 0.041 0.23671 0.16407 0.53259 0.2461 0.76929 0.041-0.65094 0.041-0.65094 0.36916-0.65094 0 0.11834-0.041 0.41424 0 0.53259 0 0.17753 0.20509 0.29588 0.28712 0.41424-0.041 0.35506-0.041 0.71012-0.041 0.94682 0.16407-0.41424 0.45119-0.11834 0.61526-0.23671 0.0821 0.11836 0.0821 0.23671 0.12305 0.47341 0.12305-0.23671 0.24611-0.41424 0.36916-0.65094 0.041 0.41424 0.0821 0.71012 0.16407 1.1244 0.12305-0.05918 0.20509-0.05918 0.28712-0.11835 0.28712-0.29588 0.57425-0.71012 0.98441-0.35506 0.12307 0 0.2461-0.23671 0.36916-0.23671-0.041-0.23671-0.041-0.53259-0.0821-0.65094-0.2461-0.35506-0.2461-0.35506-0.20508-0.82847 0.12305 0.23671 0.12305 0.47341 0.2461 0.53259 0.32814 0.17753 0.32814 0.53259 0.28712 0.94682 0.41018 0 0.41018 0 0.53323-0.82847 0.0821 0.29588 0.16407 0.47341 0.28712 0.82847 0.041-0.41424 0.0821-0.7693 0.0821-1.0652 0.49221 0.05918 0.49221 0.05918 0.57424-0.53259 0.12306-0.41424 0.12306-1.006 0.6973-0.88765-0.041-0.35506-0.041-0.65094-0.12305-0.94682-0.041-0.05918-0.20509-0.05918-0.32814-0.11835 0.2461-0.59176 0.45119-1.2427 0.2461-1.9528-0.12307-0.41429 0.041-0.82841-0.0821-1.2427 0-0.05918 0.12305-0.23671 0.16407-0.29588 0.0821-0.17753 0.12305-0.23671 0.20509-0.35506 0-0.59177 0.041-1.0652 0-1.5386-0.20509-0.82847-0.0821-1.5978 0.041-2.3671 0.041-0.23671 0.041-0.41424 0.041-0.53259l-0.041-0.11835zm-12.059-8.1664c-0.041-0.17753-0.041-0.29588-0.041-0.29588v-4.9708c0-0.11836 0.0821-0.41424 0.16407-0.71012 0 0 0.16407 0.23671 0.16407 0.23671 0.041 0 0.041 0.05918 0.16407 0.17753 0.12305-0.94682 0.12305-1.6569 0.24611-2.4262 0.20508-1.4794 0.45119-2.8996 0.7383-4.3199 0.24611-0.88765 0.86137-1.0652 1.3946-0.47341 0.36915 0.47341 0.61526 1.0652 0.86136 1.7161 0.65628 1.7753 1.1485 3.6689 1.5997 5.5626 0.12304 0.35506 0.12304 0.7693 0.16406 1.1835 0.12305 0.82847 0.16407 1.7161 0.28712 2.6629-0.57424 0-1.0254 0.11834-1.5587 0.29588-0.90238 0.41424-1.8868 0.65094-2.7892 0.94682-0.4922 0.11835-0.94339 0.23671-1.3946 0.41424h1e-5zm3.4044-19.232c0.10256 0 0.22558 0.059176 0.32814 0.059176v0.17753c-0.12305 0-0.2461-0.059176-0.32814-0.17753v-0.059176zm8.6957 27.517c0.24611-0.59177 0.24611-1.1244 0.12305-1.6569h-0.16407v1.5386c0.0137 0.03945 0.0274 0.0789 0.041 0.11835z"/>
  <path d="m150.02 5.0417c0.20508 0.76929-0.57424 1.1244-0.28713 1.8345-0.41016 0.11836-0.57423 0.41424-0.53321 1.0652 0.041 0.17753-0.12306 0.41424-0.16407 0.7693-0.0821-0.41424-0.12306-0.65094-0.16407-1.006-0.24611 0.41424-0.28713 0.65094-0.24611 1.006 0.12305 0.47341 0.041 1.006-0.16407 1.3019-0.36916 0.76929-0.73831 1.5386-1.1075 2.1895-0.14356 0-0.34865-0.11834-0.49221-0.11834-0.41018 0.7693-0.53323 1.6569-1.0665 2.2487 0.20509-0.65094 0.12306-1.006-0.16407-1.3019-0.12304 0.29588-0.20507 0.71012-0.32813 1.0652h-0.12305c0.041-0.59176-0.12305-1.0652-0.16407-1.6569-0.12305-1.0652-0.28712-2.1304-0.65628-3.1364-0.20509-0.65094-0.28712-1.4202-0.49221-2.012-0.41017-0.88765-0.73831-1.8345-1.1485-2.6629-0.36916-0.65094-0.73831-1.2427-1.1485-1.7753-0.16406-0.17753-0.41016-0.35506-0.53322-0.35506-0.20508 0.17753-0.28712 0-0.41017-0.059176-0.16407-0.17753-0.28712-0.29588-0.45119-0.35506-0.49221-0.35506-1.0254-0.59177-1.4356-1.006-0.45119-0.41424-0.86136-0.59177-1.3126-0.59177-0.16406 0-0.32813-0.41424-0.57423-0.059177-0.12305 0.23671-0.24611 0.59177-0.32814 0.82847-0.0821 0.059177-0.0821 0.17753-0.12305 0.17753l-0.57425-0.11835c-0.0821 0.17753-0.16407 0.35506-0.16407 0.53259-0.12305 0.41424-0.20509 0.82847-0.2461 1.2427-0.041 0.41424-0.16407 0.88765-0.16407 1.4202 0 1.7753 0.041 3.5506 0.12305 5.2667 0 0.53259-0.0821 1.0652 0 1.4794 0.0821 1.1835 0.0821 2.4262 0.0821 3.6098 0 0.29588 0 0.65094 0.20509 0.94682 0.0821 0.29588 0.28712 0.71012 0.041 1.006-0.041 0 0.041 0.17753 0.16407 0.35506 0.0615-0.17744 0.0615-0.47351 0.12305-0.65094 0.16407-0.7693 0.41018-1.4202 0.41018-2.0712 0.041-0.71012 0.20508-1.006 0.49221-1.5978 0.0821 1.3019 0.20508 2.4854 0.2461 3.6689 0.041 0 0.16407 0 0.16407 0.05918 0.0821 0.23671 0.12305 0.41424 0.12305 0.65094 0 1.7753-0.041 3.4914-0.41017 5.2075 0.12305 0.11834 0.28712 0.17753 0.53323 0.35506 0 0.23671-0.0821 0.59176-0.12306 0.88765-0.16407 0.71012-0.32814 1.4202-0.2461 2.1895 0.0821 1.006-0.041 1.9528-0.16407 2.9588 0 0.35506-0.12305 0.76929 0 1.0652 0.12305 0.35506 0.12305 0.59176 0.0821 0.94682-0.0821 0.29588-0.0821 0.59177-0.0821 1.006-0.45119-0.35506-0.20509-0.82847-0.20509-1.1835-0.0821-0.41424-0.0821-0.88765-0.0821-1.4794-0.20509 0.29588-0.41018 0.41424-0.20509 0.82847 0.0821 0.23671 0.041 0.59176 0.041 0.88765 0 0.23671-0.12306 0.35506-0.24611 0.23671-0.041-0.23671-0.0821-0.47341-0.16407-0.71012 0-0.65094 0.12305-1.4202-0.20509-2.0712-0.0821-0.11836 0-0.35506 0-0.53259 0-0.41424-0.0821-0.88765 0-1.3611 0.041-0.7693 0.041-1.5386 0.20509-2.2487 0.0821-0.41424 0.12305-0.82847 0.12305-1.2427 0-0.11836-0.041-0.11836-0.12305-0.17753 0 0.17753-0.041 0.35506-0.12305 0.47341-0.041 0-0.0821-0.05918-0.0821-0.05918 0-0.88765-0.12305-1.7161 0.041-2.6629 0.041-0.05918 0.041-0.17753 0-0.23671-0.041-0.41424-0.16407-0.7693-0.28712-1.1835l-0.041 0.11835c-0.0821 0.65094-0.20509 1.3019 0.041 1.9528 0.041 0.17753 0 0.29588 0 0.41424-0.041 0.7693 0 1.5386-0.16407 2.2487v0.17753c0.16407 0.82847 0.20509 1.6569-0.0821 2.4854v0.35506 5.2075c0-0.02959 0.0821 1.2723 0.0821 1.3019 0 1e-6 -0.0821 3.0772-0.0821 3.0772 0 0.41424 0.12306 0.88765 0.0821 1.3019-0.0821 0.7693 0.20509 1.4202 0.32814 2.2487 0.28712-0.23671 0.45119-0.47341 0.6973-0.71012 0.12305 0.23671 0.2461 0.47341 0.32814 0.82847 0.20508 0.47341 0.41017 0.53259 0.69728 0.11835 0.12306-0.05918 0.16407-0.23671 0.24611-0.29588 0.90238 0.29588 0.90238 0.29588 1.2715 0.05918 0-0.17753 0-0.23671-0.0821-0.47341 0.36915 0.17753 0.57424 0.23671 0.82035 0.29588 0.28712-0.29588 0.041-0.53259-0.0821-0.82847 0.12305-0.11835 0.24611-0.23671 0.36916-0.41424 0.041 0.17758 0.12303 0.35502 0.16407 0.53259 0.041 0.41424 0.2461 0.41424 0.53323 0.41424 0.0821-0.41424 0.16406-0.7693 0.20507-1.2427 0.16407-0.11835 0.41018-0.17753 0.57425-0.23671 0.0821 0 0.2461-0.11835 0.2461-0.11835-0.0821-0.65094 0.41018-0.47341 0.57425-0.71012 0-0.7693-0.0821-1.9528-0.16407-2.0712 0-4e-6 -0.0821 0.53259-0.0821 0.53259-0.32814-1.0652-0.20508-2.1895-0.28712-3.3731-0.041-1.1838-0.12303-2.3076-0.16407-3.4914-0.28712 0.41424-0.16407 1.0652-0.45119 1.4794 0.20509-3.7281 0.57424-7.3379 0.41017-11.066 0.0821 0.17753 0.16407 0.41424 0.16407 0.59177 0 0.71012 0 1.3611 0.32814 1.9528 0.12306 0.23671 0.16407 0.59176-0.041 0.82847l0.041 0.11834c0.0821 0.05918 0.16407 0.05918 0.24611 0.05918 0 0.35506-0.0821 0.59177 0 0.82847 0.041 0.59177 0.16407 1.2427 0.28712 1.8936 0.12305 0.65094 0.45119 1.006 0.90239 0.94682 0.45119 0 0.9434 0.29588 1.3946 0.05918h0.041c0.28712 0.35506 0.65628 0.05918 0.9434 0.23671 0.20509 0.11835 0.36916 0 0.57425-0.29588 0.0821-0.11836 0.32814-0.35506 0.36915-0.29588 0.41018 0.35506 0.77934 0 1.1075-0.23671 0.12305-0.29588 0.16407-0.71012 0.2461-1.0652 0.20509 0.05918 0.36916 0.05918 0.49221 0.17753 0.12305-0.23671 0.16407-0.53259 0.28711-0.65094 0.12306 0.05918 0.16407 0.05918 0.28713 0.23671 0.16407-0.59176 0.45119-1.1835 0.53322-1.7753 0.041-0.53259 0.20509-1.0652 0.32814-1.5386 0.12306-0.76929 0.4512-1.4202 0.28713-2.2487-0.041-0.17753 0-0.41424 0.0821-0.41424 0.36916-0.41424 0.49221-1.006 0.73832-1.4794 0.20508-0.65094 0.28712-1.4202 0.73831-1.7753 0.041 0.94682 0.041 1.8345 0.16407 2.6629 0.12305 0.94682 0.24611 1.7753 0.24611 2.6629-0.0821 1.2427 0 2.5446-0.0821 3.7873 0 0.02959-0.041 3.2843-0.041 3.2547 0-1e-6 -0.041 3.7873-0.041 3.7873 0 0.94682-0.0821 1.8345 0.041 2.7813 0.12306 0.94682 0.041 1.8936 0.041 2.7813 0 0 0.0821 0 0.12305 0.11836 0-0.29588 0.0821-0.41424 0.12306-0.59176 0.041 0.23671 0.041 0.47341 0.12305 0.65094 0.041 0.41424-0.28712 0.35506-0.28712 0.65094 0.041 0.11834 0.16407 0.11834 0.16407 0.17753 0.041 0.41424 0.32814 0.47341 0.45119 0.82847 0.12305 0.23671 0.7383 0.47341 0.86136 0.35506 0.16407-0.29588 0.41017-0.17753 0.57424-0.17753 0.41018-0.11835 0.73832 0.23671 1.1485 0.23671 0.0821-0.41424 0.12305-0.82847 0.24611-1.1835 0.041-0.23671 0.20508-0.47341 0.45119-0.65094 0.041 0 0.28712 0.23671 0.41017 0.41424 0.16407 0.17753 0.28713 0.41424 0.49221 0.65094 0 1e-6 0.0821-1.8936 0.0821-1.8936 0.16407 0.17753 0.20509 0.35506 0.41016 0.53259 0.49221-0.71012 0.77934-1.4202 0.86137-2.4262 0-0.59177 0-1.0652 0.041-1.6569 0-0.35506 0.12305-0.82847-0.16407-1.1835-0.0821 0.29588-0.12305 0.35506-0.12305 0.41424-0.041-0.53259-0.041-1.1244-0.12306-1.7161 0-0.41424 0-0.88765 0.16407-1.2427 0.12306-0.17753 0.24611-0.41424 0.20509-0.59177 0-0.23671-0.20509-0.41424-0.2461-0.65094 0.12305-0.23671 0.28712-0.59176 0.41017-1.006-0.16407 0.11836-0.28712 0.11836-0.41017 0.17753-0.12306-0.82847-0.28713-1.6569 0.45119-2.0712v-1.006c-0.20509 0.53259-0.32814 0.7693-0.45119 1.006h-0.12306v-2.2487s0.0821-0.05918 0.12306-0.17753c0.28712-0.23671 0.32814-0.71012 0.41017-1.1244 0-0.08877-0.0821-0.14794-0.0821-0.23671-0.0821 0.11843-0.12298 0.11828-0.20509 0.23671 0-0.23671-0.12305-0.41424-0.0821-0.59177 0.0821-0.82847 0-1.7161 0.28713-2.4854 0.12305-0.23671 0.20508-0.59176 0.12305-0.88765 0-0.94682-0.041-1.7753-0.12305-2.6629-0.041-0.65094 0-1.4202-0.36916-2.012 0-0.05918-0.0821-0.23671 0-0.29588 0.20509-0.71012 0.0821-1.4202 0.0821-2.0712 0-0.35506 0.0821-0.59177-0.16407-0.82847-0.041-0.11836-0.12305-0.35506-0.041-0.53259 0.16407-0.29588 0.12305-0.65094 0.041-0.88765-0.12305-0.82847-0.20508-1.7753-0.41017-2.4854-0.0821-0.65094-0.28711-1.4202-0.65627-1.5978-0.20509-0.65094-0.28712-1.1244-0.49221-1.6569-0.0821 0.11835-0.20509 0.17753-0.32814 0.23671-0.041-0.11835-0.16407-0.29588-0.28712-0.47341-0.12306 0.23671-0.28713 0.41424-0.53323 0.7693v-0.7693c-0.36916-0.059176-0.77933-0.059176-1.1485-0.47341-0.041-0.11835-0.16406 0-0.20509-0.11835-0.2461-0.059177-0.53323-0.17753-0.7383-0.23671-0.49221-0.35506-0.6973-0.23671-1.0665 0.35506-0.0821 0.11835-0.28712 0.29588-0.36916 0.29588-0.28712-0.059176-0.36915 0.17753-0.53322 0.41424-0.24611 0.65094-0.32814 1.4202-0.82035 1.8936l-0.041 0.11836c0.12305 0.59177-0.24611 0.59177-0.41018 0.82847-0.12305-0.17753-0.16407-0.35506-0.20508-0.53259 2e-5 -7e-6 3e-5 -1.39e-5 4e-5 -2.09e-5zm-6.6038 18.167c0-0.17753 0-0.23671 0.041-0.35506 0.16407 0.17753 0.28712 0.35506 0.45119 0.59176-0.041 0.11835-0.12305 0.17753-0.16407 0.23671-0.12305-0.23671-0.24611-0.41424-0.32814-0.53259v0.65094c-0.0821 0-0.12305 0.05918-0.12305 0.05918-0.12306-0.17753-0.24611-0.29588-0.24611-0.47341-0.20509-1.3611-0.90238-2.6038-0.45119-4.3199 0.041 0.41424 0.12305 0.65094 0.16407 0.88765 0.16407 0.41424 0.0821 1.006 0.36916 1.3611 0.0821 0.05918-0.0821 0.47341-0.12306 0.82847 0.12306 0.29588 0.20509 0.65094 0.41018 1.0652 0-1e-6 -1e-5 -2e-6 -1e-5 -3e-6zm-5.0041-8.1072c0 0.88765 0.32814 1.8345-0.2461 2.6629 0-0.14795 0.0821-0.20711 0.0821-0.35506 0.041-0.05918 0.0821-0.35506 0.041-0.35506-0.32814-0.47341-0.041-1.1244-0.16407-1.7161 0-0.05918 0.041-0.17753 0.12305-0.23671h0.16407-4e-5zm17.514 20.534c0.45119 0.35506 0.041 1.006 0.32814 1.4794-0.20509-0.17753-0.28713-0.23671-0.41018-0.29588 0-0.35506 0-0.71012 0.0821-1.1835h-2e-5zm-18.212-21.304c-0.28713-0.47341 0-0.82847 0.041-1.3019 0.57425 0.59176-0.32813 0.82847-0.041 1.3019zm2.8302 10.119c0.0821-0.17753 0.16407-0.23671 0.32814-0.41424v1.006c-0.16407-0.23671-0.2461-0.41424-0.32814-0.59177zm2.9122 1.4794c0.28712-0.05918 0.45119-0.17753 0.69729-0.23671-0.16407 0.47341-0.16407 0.47341-0.69729 0.23671zm-2.8302-5.9768c0.2461 0.41424 0.12305 0.71012-0.041 1.1244-0.12305-0.41424-0.12305-0.76929 0.041-1.1244zm0.53323-1.0652v1.006c-0.16407-0.47341-0.16407-0.47341 0-1.006zm0.86135-1.0652c-0.041-0.17753-0.12305-0.35506-0.16407-0.47341h0.12306c0.041 0.11834 0.0821 0.29588 0.16407 0.47341h-0.12306zm16.94 1.7161h-0.12305c-0.041 0.53259-0.12305 1.006-0.12305 1.6569 0.36915-0.53259 0.28712-1.1244 0.2461-1.6569zm-11.157-9.6458c0.41018-0.29588 0.49221-0.41424 0.20509-0.82847-0.0821 0.23671-0.12305 0.47341-0.20509 0.82847zm-11.075 12.9h-0.16407c0-0.02959-0.041 0.73971-0.041 0.76929h0.0821c0.0821-0.29588 0.0821-0.53259 0.12306-0.76929h-2e-5zm-0.16407 5.1484c0.041-0.11835 0.12305-0.11835 0.16407-0.11835-0.041-0.29588-0.12306-0.53259-0.16407-0.88765 0 0-0.041 0-0.12306 0.05918 0.0821 0.29588 0.12306 0.59177 0.12306 0.94682v-1.2e-5zm22.272-2.0712h-0.12305v0.88765h0.12305v-0.88765zm-11.239-15.149c-0.28712 0.05918-0.41017 0.11836-0.36915 0.41424 0 0.05918 0.0821 0.05918 0.12305 0.11835 0.0821-0.11835 0.12305-0.23671 0.2461-0.53259v7e-6zm-11.649 6.9237h-0.12305v0.82847h0.041c0.0821-0.23671 0.0821-0.47341 0.0821-0.82847h-4e-5zm18.171-16.155c0 0.11835 0 0.11835 0.0821 0.17753 0.041-0.0592 0.16404-0.17751 0.20508-0.23671 0-0.029588-0.041-0.20712-0.041-0.17753-0.12305 0.059177-0.16407 0.17753-0.24609 0.23671h-3e-5zm-11.69 32.488c-0.0821-0.05918-0.0821-0.05918-0.12305-0.05918 0 0.11835 0 0.29588-0.041 0.47341h0.041c0.041-0.17753 0.12305-0.35506 0.12305-0.41424v5e-6z"/>
  <path d="m161.99 15.989c0-0.41424 0.041-0.82847 0.12306-1.2427 0.20508 0.65094 0.16407 0.82847-0.20509 1.2427 0 1.0652 0.12305 2.1895 0.36916 3.2547 0.041-0.41424 0.041-0.7693 0.12305-1.1835 0.041 0.11835 0.0821 0.17753 0.041 0.17753-0.041 0.7693 0.12305 1.5978-0.12306 2.3079 0 0.17753 0 0.35506 0.0821 0.59177 0-0.02959 0.0821 0.62135 0.0821 0.65094 0 0.59176-0.041 1.2427-0.0821 1.8345-0.12305 0.82847-0.0821 1.5978 0.20509 2.2487-0.041-0.65094-0.041-1.4202-0.12306-2.1895h0.20509c-0.0821 0.7693 0.16407 1.4202-0.0821 2.1895 0.0821 0.65094-0.041 1.2427-0.16407 1.8345-0.041 0.41424-0.12306 0.88765 0 1.3611 0.12305-0.11836 0.16407-0.23671 0.32814-0.41424-0.041 1.006-0.0821 1.9528-0.0821 2.7813 0 0.47341-0.12305 0.94682-0.20509 1.4794-0.041 0.47341-0.20508 1.006-0.041 1.5386 0-0.02959-0.041 0.56218-0.041 0.59177-0.0821 1.1835-0.36916 2.2487 0 3.4914 0.0821 0.35506 0.041 0.82847 0.041 1.3019 0 0.35506 0.12305 0.53259 0.28712 0.53259h0.86137c0.14357 0.20714 0.26659 0.4438 0.41017 0.65094 0.041 0 0.20509 0 0.20509-0.05918 0.36916-0.41424 0.6973-0.82847 1.1075-1.1244 0.041 0.11836 0.12305 0.35506 0.24611 0.53259 0.20503-0.17748 0.45125-0.3551 0.65628-0.53259-0.16407-0.71012-0.0821-0.88765 0.12305-1.3019 0.28712 0.41424 0.53323 0.82847 0.73831 1.2427 0.28713-0.59176 0.0821-1.0652-0.041-1.5978 0.16401-0.05916 0.24616-0.05919 0.41017-0.11834 0 0.23671-0.16407 0.47341 0.041 0.53259 0.2461 0.11835 0.36916-0.05918 0.36916-0.29588v-0.17753c0.041-0.41424 0.20508-0.41424 0.36915-0.23671 0.0821-0.35506 0.20509-0.65094 0.24611-1.006 0.28712 0.17753 0.53323 0.35506 0.82034 0.59176 0.041-1.1835 0.0821-2.2487-0.0821-3.3139-0.041 0-0.12305 0-0.12305-0.11835-0.041 0.17753-0.0821 0.35506-0.16407 0.59176-0.16407-0.65094-0.16407-0.65094 0.36916-1.0652 0-1.006-0.0821-2.0712-0.0821-3.0772-0.12305 0.35506-0.12305 0.65094-0.12305 1.006-0.041 0.41424-0.0821 0.82847-0.0821 1.1835 0 0.29588 0.16407 0.65094-0.12306 0.82847-0.0821-0.59176-0.12305-1.1835-0.12305-1.8345v-1.2427c0.12305-1.0652 0.16407-2.0712-0.16407-3.0772 0-0.14794-0.0821-0.20712-0.0821-0.35506 0.0821-0.71012 0.12305-1.5386 0.12305-2.3079 0-0.59176 0.12305-1.3019-0.041-1.8345-0.12305-0.53259-0.16407-1.0652-0.16407-1.5386 0-0.59176 0.041-1.0652 0-1.5978-0.12305-1.0652-0.2461-2.1304-0.41017-3.1364-0.24611-1.8936-0.36916-3.9057-0.41018-5.7993 0-1.1835-0.45118-2.3079-0.12305-3.5506 0 3.7e-6 -0.041-0.35506-0.041-0.35506-0.0821-0.05918-0.0821-0.23671-0.0821-0.41424h0.12305c0.0821 0.35506 0.12305 0.59177 0.16407 0.94682h0.0821c0-0.82847-0.0821-1.5978-0.12305-2.4854-0.2461 0.11835-0.41016 0.23671-0.53322 0.41424-0.0821-0.76929 0.12306-1.5978-0.20508-2.2487-0.12306 0.17753-0.16407 0.23671-0.28713 0.29588-0.2461-0.47341-0.12305-1.1244-0.57424-1.4794-0.12305 0.11835-0.24611 0.23671-0.36916 0.35506-0.041-0.7693-0.041-0.7693-0.32814-0.94682 0.041 0.29588 0.041 0.59177 0.12305 0.82847h-0.12305c-0.12305-0.29588-0.28712-0.65094-0.41017-1.0652-0.10255 0.14794-0.18458 0.20712-0.28713 0.35506-0.16407-0.23671-0.28712-0.53259-0.45119-0.59177-0.41017-0.17753-0.86137-0.17753-1.2715-0.23671-0.16407 0.59177-0.45119 0.88765-0.86137 0.88765-0.32814 0-0.49221 0.35506-0.61526 0.7693-0.12305 0.65094-0.36916 1.2427-0.16407 1.9528 0.041 0.29588-0.0821 0.71012-0.0821 1.006 0 0.41424-0.041 0.94682 0 1.4202 0.12306 1.8345 0.28713 3.7281 0.4512 5.6218 0.0821 1.1835 0.20508 2.4262 0.2461 3.6689 0 0.05918 0.041 0.05918 0.12305 0.05918 6e-5 -6e-6 1.3e-4 -1.1e-5 1.9e-4 -1.7e-5zm4.4299 6.2135v-0.82847h0.0821v0.82847h-0.0821zm1.8868 8.1072v-0.53259c0.20509 0.29588 0.20509 0.29588 0 0.53259zm0.12305-1.8936c0-0.23671-0.0821-0.59176-0.0821-0.82847h0.12305s0.041 0.7693 0.041 0.7693c-0.041 0-0.0821 0.05918-0.0821 0.05918 1e-5 -2e-6 2e-5 -3e-6 4e-5 -5e-6zm-1.6407-7.9297v-0.65094c0.28712 0.11834 0.12305 0.29588 0 0.65094z"/>
 </g>
</svg>
